# xmcd CD database file
#
# Track frame offsets:
#	150
#	53574
#	78793
#	112280
#	150212
#	177255
#	210611
#
# Disc length: 3469 seconds
#
# Revision: 0
# Processed by: cddbd v1.5.1PL2 Copyright (c) Steve Scherf et al.
# Submitted via: CDex 1.51
#
DISCID=4d0d8b07
DTITLE=Tool - 2001-07-01-Edgefest 2001-Molson Park-Barrie, Ontario, Canada
DYEAR=2001
DGENRE=Blues
TTITLE0=The Grudge
TTITLE1=Stinkfist
TTITLE2=Forty Six and Two
TTITLE3=Schism
TTITLE4=Sober
TTITLE5=Parabola
TTITLE6=Lateralus
EXTD=YEAR: 2001
EXTT0=
EXTT1=
EXTT2=
EXTT3=
EXTT4=
EXTT5=
EXTT6=
PLAYORDER=
